<svg xmlns="http://www.w3.org/2000/svg" width="62.962" height="62.875" viewBox="0 0 62.962 62.875">
  <g id="Group_127" data-name="Group 127" transform="translate(-677.988 -5580.104)">
    <path id="Path_238" data-name="Path 238" d="M8.1,19.858a10.305,10.305,0,0,1,3.524-7.842,12.681,12.681,0,0,1,6.682-3.2A4.74,4.74,0,0,1,22.4,10.007a41.59,41.59,0,0,1,9.422,12.655,4.45,4.45,0,0,1-1.085,5.576A12.831,12.831,0,0,1,28.9,29.731c-2.654,1.74-2.922,3.352-2.063,6.188A24.11,24.11,0,0,0,34.7,47.263a31.234,31.234,0,0,0,8.648,5.071,4.129,4.129,0,0,0,5.275-1.493,14.333,14.333,0,0,1,2.2-2.288,6.214,6.214,0,0,1,7.348-.569,75.65,75.65,0,0,1,6.478,4.265,50.324,50.324,0,0,1,4.05,3.191c2.589,2.245,3.072,4.856,1.332,7.821a15.759,15.759,0,0,1-10.109,7.6,5.608,5.608,0,0,1-3.771-.6c-3.255-1.472-6.521-2.911-9.679-4.577A77.537,77.537,0,0,1,15.33,36.284c-2.106-3.534-3.986-7.2-5.9-10.84A13.244,13.244,0,0,1,8.1,19.858Z" transform="translate(669.888 5572)" fill="#f6eeee"/>
    <g id="Group_125" data-name="Group 125">
      <path id="Path_239" data-name="Path 239" d="M68.262,36.748c-.043.655-.064,1.311-.129,1.955a1.644,1.644,0,0,1-3.223.269c-.193-.924-.193-1.891-.322-2.836a34.931,34.931,0,0,0-4.072-12.752A21.7,21.7,0,0,0,47.2,13.36c-2.89-.827-5.887-1.278-8.852-1.848-1.418-.269-2.009-1.246-1.386-2.471a1.725,1.725,0,0,1,1.719-.892A29.4,29.4,0,0,1,67.757,31.376c.355,1.751.4,3.567.591,5.35C68.316,36.737,68.294,36.737,68.262,36.748Z" transform="translate(672.014 5571.955)" fill="#f6eeee"/>
      <path id="Path_240" data-name="Path 240" d="M60.559,34.295v.741c-.021,1.354-.494,1.8-1.934,1.826-.967.011-1.526-.7-1.59-1.88a20.665,20.665,0,0,0-2.675-9.314c-1.891-3.287-5-4.931-8.476-5.941-1.665-.483-3.373-.816-5.081-1.16-1.128-.226-1.676-.655-1.762-1.5-.129-1.364.559-2.181,1.944-2.052,4.308.419,8.412,1.472,11.9,4.211a18.961,18.961,0,0,1,7.445,12.086,3.762,3.762,0,0,1,.075.483c.064.838.118,1.687.172,2.525C60.581,34.295,60.57,34.295,60.559,34.295Z" transform="translate(672.186 5572.463)" fill="#f6eeee"/>
      <path id="Path_241" data-name="Path 241" d="M52.9,31.809c-.032.215.021.72-.2,1a3.242,3.242,0,0,1-1.44,1.246,1.45,1.45,0,0,1-1.719-1.192c-.2-.763-.269-1.547-.473-2.31a6.942,6.942,0,0,0-6.156-5.167c-1.117-.1-1.665-.462-1.73-1.149a2.2,2.2,0,0,1,1.45-2.213,4.232,4.232,0,0,1,2.954.2,11.035,11.035,0,0,1,7.273,8.809C52.89,31.24,52.88,31.433,52.9,31.809Z" transform="translate(672.346 5572.972)" fill="#f6eeee"/>
    </g>
  </g>
</svg>
