<svg xmlns="http://www.w3.org/2000/svg" width="28.764" height="28.725" viewBox="0 0 28.764 28.725">
  <g id="Group_122" data-name="Group 122" transform="translate(-677.988 -5580.105)">
    <path id="Path_238" data-name="Path 238" d="M8.1,13.826a4.708,4.708,0,0,1,1.61-3.583A5.794,5.794,0,0,1,12.763,8.78a2.166,2.166,0,0,1,1.87.545,19,19,0,0,1,4.3,5.782,2.033,2.033,0,0,1-.5,2.547,5.862,5.862,0,0,1-.839.682,2.076,2.076,0,0,0-.942,2.827,11.015,11.015,0,0,0,3.593,5.183A14.269,14.269,0,0,0,24.2,28.662a1.886,1.886,0,0,0,2.41-.682,6.548,6.548,0,0,1,1.006-1.045,2.839,2.839,0,0,1,3.357-.26,34.56,34.56,0,0,1,2.959,1.948,22.991,22.991,0,0,1,1.85,1.458,2.56,2.56,0,0,1,.609,3.573,7.2,7.2,0,0,1-4.618,3.47,2.562,2.562,0,0,1-1.723-.275c-1.487-.672-2.979-1.33-4.422-2.091A35.423,35.423,0,0,1,11.4,21.33c-.962-1.615-1.821-3.288-2.694-4.952A6.05,6.05,0,0,1,8.1,13.826Z" transform="translate(669.888 5571.648)" fill="#2a2a2a"/>
    <path id="Path_239" data-name="Path 239" d="M51.125,21.215c-.02.3-.029.6-.059.893a.751.751,0,0,1-1.472.123c-.088-.422-.088-.864-.147-1.3a15.959,15.959,0,0,0-1.86-5.826A9.915,9.915,0,0,0,41.5,10.53c-1.32-.378-2.69-.584-4.044-.844-.648-.123-.918-.569-.633-1.129a.788.788,0,0,1,.785-.407A13.432,13.432,0,0,1,50.894,18.761c.162.8.182,1.629.27,2.444C51.149,21.21,51.14,21.21,51.125,21.215Z" transform="translate(655.32 5571.955)" fill="#2a2a2a"/>
    <path id="Path_240" data-name="Path 240" d="M48.863,23.813v.339c-.01.618-.226.825-.883.834-.442,0-.7-.319-.726-.859a9.441,9.441,0,0,0-1.222-4.255,6.112,6.112,0,0,0-3.872-2.714c-.761-.221-1.541-.373-2.321-.53-.515-.1-.766-.3-.8-.687-.059-.623.255-1,.888-.937a10.08,10.08,0,0,1,5.438,1.924,8.662,8.662,0,0,1,3.4,5.521,1.719,1.719,0,0,1,.034.221c.029.383.054.771.079,1.153C48.873,23.813,48.868,23.813,48.863,23.813Z" transform="translate(654.141 5568.467)" fill="#2a2a2a"/>
    <path id="Path_241" data-name="Path 241" d="M46.531,26.4c-.015.1.01.329-.093.456a1.481,1.481,0,0,1-.658.569.663.663,0,0,1-.785-.545c-.093-.348-.123-.707-.216-1.055a3.172,3.172,0,0,0-2.812-2.361c-.51-.044-.761-.211-.79-.525a1,1,0,0,1,.663-1.011,1.933,1.933,0,0,1,1.35.093,5.041,5.041,0,0,1,3.323,4.025C46.526,26.135,46.521,26.224,46.531,26.4Z" transform="translate(653.048 5564.983)" fill="#2a2a2a"/>
  </g>
</svg>
