<svg xmlns="http://www.w3.org/2000/svg" width="178.186" height="111.913" viewBox="0 0 178.186 111.913">
  <g id="Group_90" data-name="Group 90" transform="translate(3285.005 389.235)">
    <path id="Path_76" data-name="Path 76" d="M-3144.265-304.113c-8.011.082-12.075-3.329-13.262-10.915a14.248,14.248,0,0,1-.294-3.773c.769-6.477-1.05-12.546-2.84-18.6-1.161-3.933-2.529-7.811-3.956-11.658-2.363-6.366.259-11.458,6.874-12.61a20.893,20.893,0,0,1,11.564,1.179c2.529,1.026,4.273,2.888,4.4,5.676.2,4.049-.213,7.967-4.175,10.442-.8.5-2.132,1.07-1.679,2.179.381.94,1.714.415,2.625.41a7,7,0,0,0,2.243-.332c3.983-1.384,7.9-.439,11.762.426,2.741.615,4.8,2.54,6.542,4.646,5.872,7.084,4.751,21.511-2.131,27.576-3.554,3.134-7.946,4.323-12.508,4.966A24.218,24.218,0,0,1-3144.265-304.113Zm8.481-19.119c-.029-3.169-.946-5.739-4.149-7.16-3.38-1.5-6.078-1.055-8.4,1.443-2.629,2.827-1.912,5.9-.044,8.812,1.6,2.5,5.877,4.161,8.311,3.465C-3137.785-317.327-3135.792-320.38-3135.784-323.232Zm-19.5-23.448c.83-.292,2.476.2,2.638-1.164a8.487,8.487,0,0,0-1.234-5.624,1.671,1.671,0,0,0-1.609-.805c-1.494.111-4.012,2.663-3.975,4.045C-3159.4-348-3157.835-346.618-3155.28-346.68Z" transform="translate(13.844 -4.762)" fill="#2a2a2a"/>
    <g id="Group_6" data-name="Group 6" transform="translate(-3222.165 -297.826)">
      <g id="Group_5" data-name="Group 5" transform="translate(0)">
        <path id="Path_79" data-name="Path 79" d="M-3154.684-289.9c-.913.546-1.939.224-2.908.316-.64.059-.864.176-.887.823a18.328,18.328,0,0,0,1.207,6.413c.142.43.334.853.857.947.343.063.795.057.813.491a1.126,1.126,0,0,1-.668.94.954.954,0,0,1-1.235-.116,7.635,7.635,0,0,1-1.627-2.656,14.617,14.617,0,0,1-.854-5.573c.05-1.069-.333-1.3-1.3-1.049a10.263,10.263,0,0,1-1.757.148c.021.6.825.582.812,1.223a1.981,1.981,0,0,1-.507.153c-2,.064-2.237.321-2.176,2.3.024.839-.048,1.683,0,2.52a1.2,1.2,0,0,1-1.01,1.291c-.721.182-.763-.586-.842-.992-.341-1.764-.776-3.5-1.277-5.226-.143-.487-.186-1.115.4-1.282.376-.107,1.038-.148,1.119.6.031.276.325.573.445.331.466-.931,2.281-.153,2.167-1.79-.025-.385.551-.379.866-.441.68-.137,1.38-.185,2.07-.286s1.189-.269,1.079-1.21a5.5,5.5,0,0,1,.549-2.613c.112-.283.3-.56.653-.491.41.079.286.455.307.729.018.248-.014.5-.014.75,0,.8-.272,1.742.064,2.353.422.77,1.455.121,2.216.249C-3155.383-290.927-3154.728-290.832-3154.684-289.9Z" transform="translate(3245.264 296.339)" fill="#2a2a2a"/>
        <path id="Path_80" data-name="Path 80" d="M-3194.973-280.012c.578.546,1.163,1.078,1.721,1.641.884.894,1.548.668,2.113-.356a8.438,8.438,0,0,0,.909-4.047,36.3,36.3,0,0,0-.063-5.691l-.409-.289c-.056.2-.042.463-.169.585-1.9,1.82-3.206,1.563-4.253-.871a4,4,0,0,1,.114-3.455.662.662,0,0,1,.854-.412c.365.147.274.5.247.779-.052.494-.175.981-.242,1.475a1.55,1.55,0,0,0,.935,1.845c.714.237,1.311-.292,1.686-.921a6.674,6.674,0,0,0,.9-2.2.942.942,0,0,1,1.072-.841c.442.086.638.525.654,1.047.113,3.678.7,7.345.1,11.034a8.128,8.128,0,0,1-1.533,3.691,1.964,1.964,0,0,1-3.185.447,5.58,5.58,0,0,1-2.192-3.405Z" transform="translate(3244.088 296.433)" fill="#2a2a2a"/>
        <path id="Path_82" data-name="Path 82" d="M-3230.244-286.787a20.434,20.434,0,0,1,1.037-2.222c.743-1.2,1.784-1.125,2.5.1,1.06,1.819.875,3.938,1.4,5.89.188.7-.476.559-.885.3-1.01-.635-1.061-1.721-1.188-2.731a4.567,4.567,0,0,0-.587-2.118,31.6,31.6,0,0,0-1.858,4.473c-.211.488-.251,1.246-.948,1.129a1.412,1.412,0,0,1-1.169-1.368q-.311-5.867-.6-11.733c-.024-.491-.064-1.176.547-1.223.8-.062.645.7.691,1.216q.322,3.61.633,7.222A1.162,1.162,0,0,0-3230.244-286.787Z" transform="translate(3242.515 296.29)" fill="#2a2a2a"/>
        <path id="Path_83" data-name="Path 83" d="M-3196.036-282.394c-1.751-1.248-1.528-3.3-2.066-5.471-.764,1.922-1.4,3.483-2,5.058-.252.65-.545,1.571-1.22,1.433a1.844,1.844,0,0,1-1.214-1.879c-.007-2.012-.167-4.014-.294-6.02a4,4,0,0,1,.692-2.05c.276-.475.623-.5.846.233a10.974,10.974,0,0,1,.2,2.961,24.7,24.7,0,0,0,.129,2.517,11.748,11.748,0,0,0,1.6-3.422c.223-.723.44-1.561,1.333-1.56.96,0,1.08.909,1.215,1.633a48.4,48.4,0,0,1,1.063,6.54A.918.918,0,0,0-3196.036-282.394Z" transform="translate(3243.784 296.488)" fill="#2a2a2a"/>
        <path id="Path_84" data-name="Path 84" d="M-3178.5-293.342c-.118,2.126-.116,2.115,2.128,2.31.383.032.842-.052,1.127.286a3.4,3.4,0,0,1,.379.782,2.547,2.547,0,0,1-.656.255,14.148,14.148,0,0,1-2.176.127c-.841-.046-1.022.35-1,1.075a22.361,22.361,0,0,0,1.162,5.974c.134.431.313.978.9,1.12.364.089.882,0,.841.6a1.083,1.083,0,0,1-.726.884,1.022,1.022,0,0,1-1.234-.225,7.97,7.97,0,0,1-1.643-2.817,17.044,17.044,0,0,1-.826-5.442c-.024-1.029-.39-1.14-1.248-.96a14.373,14.373,0,0,1-1.893.137.674.674,0,0,1-.775-.539c-.114-.457.2-.689.582-.666,2.749.168,3.922-1.2,3.908-3.853,0-.408.248-.969.837-.824.531.129.271.664.309,1.029C-3178.48-293.844-3178.5-293.591-3178.5-293.342Z" transform="translate(3244.58 296.339)" fill="#2a2a2a"/>
        <path id="Path_85" data-name="Path 85" d="M-3236.547-293.07c-.084,1.977-.084,1.972,1.833,2.009.349.006.693.074,1.043.1a.865.865,0,0,1,.791.786c.094.659-.58.319-.853.534-.1.077-.285.055-.432.059-2.65.071-2.718.078-2.38,2.646a31.579,31.579,0,0,0,1,4.343c.136.488.345,1.073,1.006,1.191.339.06.794.062.789.508a1.152,1.152,0,0,1-.681.931.98.98,0,0,1-1.239-.134,7.086,7.086,0,0,1-1.573-2.52,14.546,14.546,0,0,1-.89-5.412c.041-1.052-.11-1.761-1.466-1.3a6.048,6.048,0,0,1-1.762.1.671.671,0,0,1-.74-.585c-.073-.455.263-.543.622-.671a6.571,6.571,0,0,0,3.813-3.756c.148-.392.225-1.018.815-.9.507.1.293.646.3,1.022C-3236.542-293.77-3236.547-293.42-3236.547-293.07Z" transform="translate(3242.108 296.339)" fill="#2a2a2a"/>
        <path id="Path_86" data-name="Path 86" d="M-3204.515-290.947c.232,1.139-.264,1.414-1.356,1.357-2.351-.124-2.357-.069-2.258,2.245a21.261,21.261,0,0,0,1.115,4.9,1.276,1.276,0,0,0,.8,1.012c.355.106.9-.006.878.572a1.105,1.105,0,0,1-.823.971,1.059,1.059,0,0,1-1.2-.347,10.286,10.286,0,0,1-2.213-5.746,13.277,13.277,0,0,1-.113-2.387c.051-1.073-.4-1.232-1.338-.99a11.68,11.68,0,0,1-1.765.113c-.48.047-.8-.149-.865-.594s.291-.642.664-.615c2.738.19,3.745-1.279,3.8-3.794.006-.338.2-.98.811-.877.477.08.279.559.3.877.065,1.029-.493,2.364.168,3,.54.524,1.867.239,2.848.308.192.013.385.006.577.008Z" transform="translate(3243.321 296.34)" fill="#2a2a2a"/>
        <path id="Path_87" data-name="Path 87" d="M-3217.674-284.214c-1.428,2.426-3.215,3.087-5.457,2.182a4.208,4.208,0,0,1-2.151-4.7,9.3,9.3,0,0,1,2.81-4.946,4.294,4.294,0,0,1,1.286-.736c1.131-.409,1.905.13,1.855,1.333-.081,1.9-1.42,2.983-2.76,4.052-.639.51-1.77.6-1.4,1.928.379,1.363,1.416,1.694,2.575,1.825A4.945,4.945,0,0,0-3217.674-284.214Zm-5.372-3.64a5.145,5.145,0,0,0,2.184-2.218c.086-.221.2-.492-.019-.69-.229-.214-.471-.056-.636.117A4.34,4.34,0,0,0-3223.046-287.854Z" transform="translate(3242.821 296.45)" fill="#2a2a2a"/>
        <path id="Path_88" data-name="Path 88" d="M-3144.41-283.43a3.639,3.639,0,0,1-3.34,1.763c-1.568-.117-2.891-.611-3.5-2.3-.88-2.459.617-6.6,2.971-8.055.76-.469,1.6-.895,2.313-.151a2.015,2.015,0,0,1,.063,2.376,7.324,7.324,0,0,1-2.963,3.083c-.437.252-1.143.425-.984,1.143.167.746.257,1.521,1.189,1.9a4.2,4.2,0,0,0,2.9.243C-3145.34-283.548-3144.957-283.815-3144.41-283.43Zm-4.909-4.4c1.007-.756,1.828-1.254,2.173-2.249.079-.232.18-.5-.053-.683s-.476-.021-.645.155A4.173,4.173,0,0,0-3149.318-287.83Z" transform="translate(3245.975 296.449)" fill="#2a2a2a"/>
        <path id="Path_89" data-name="Path 89" d="M-3170.271-285.146c-.723.919-1.484,1.912-2.691,1.582-1.378-.377-1.731-1.747-1.973-2.965a15.171,15.171,0,0,1-.058-2.838c0-.42.058-.86.592-.832.439.023.666.338.691.819.047.992.1,1.987.235,2.971.066.477.246,1.075.783,1.168.659.113.861-.508,1.149-.985a10.629,10.629,0,0,0,.668-2.125c.092-.262.067-.642.464-.683a.712.712,0,0,1,.726.441c.567,1.681.717,3.509,1.838,4.991a.313.313,0,0,1-.21.471c-.447.108-.93.152-1.225-.3C-3169.63-283.955-3169.917-284.525-3170.271-285.146Z" transform="translate(3244.97 296.55)" fill="#2a2a2a"/>
        <path id="Path_90" data-name="Path 90" d="M-3153.555-284.326a75.473,75.473,0,0,0-1.141-7.979,11.264,11.264,0,0,1-.217-2.2c0-.34-.1-.87.476-.942.522-.066.694.376.776.747.433,1.936.917,3.868,1.2,5.828.31,2.105.423,4.238.616,6.36.026.3.035.616-.278.789s-.537-.069-.783-.236C-3153.757-282.535-3153.713-283.368-3153.555-284.326Z" transform="translate(3245.829 296.326)" fill="#2a2a2a"/>
        <path id="Path_107" data-name="Path 107" d="M-3203.656-285.4c0,.644,0,1.289,0,1.933,0,.372-.078.724-.478.814-.438.1-.676-.344-.735-.6a11.3,11.3,0,0,1-.058-5.393.565.565,0,0,1,.523-.46c.419-.016.369.349.473.616A8.211,8.211,0,0,1-3203.656-285.4Z" transform="translate(3243.682 296.597)" fill="#2a2a2a"/>
      </g>
    </g>
    <path id="Path_131" data-name="Path 131" d="M-3258.566-378.949c6.307.218,11.71,1.028,16.679,3.74a20.739,20.739,0,0,1,5.421,4.418c2.577,2.853,2.476,6.29,1.816,9.693-1.22,6.278-4.452,11.657-7.969,16.88-.516.768-1.663,1.688-1.1,2.418.678.886,1.893.048,2.772-.366a62.419,62.419,0,0,1,10.849-4.457c16.5-4.292,30.992,10.791,29.345,25.8-1.639,14.933-9.34,25.827-23,32.256a35.153,35.153,0,0,1-13.96,3.227c-7.141.225-12.051-3.062-15.154-9.363a50.315,50.315,0,0,1-5.087-19.337c-.91-15.023-4.405-29.477-9.248-43.618a27.252,27.252,0,0,1-1.883-10.3C-3268.776-374.119-3266.658-379.632-3258.566-378.949Zm27.453,67.48c5.938-.073,7.973-3.17,8.183-8.088.14-3.348-4.359-7.227-7.905-7.152-3.325.071-6.438,4.082-6.324,8.145C-3237.033-314.12-3234.7-311.383-3231.113-311.469Zm-14.272-48.3c-.013-.259-.019-.577-.055-.891a4.667,4.667,0,0,0-5.363-3.9c-2.518.365-3.656,2.221-3.1,5.051.545,2.749,2.337,4.374,4.81,5.429a1.04,1.04,0,0,0,1.463-.318A9.039,9.039,0,0,0-3245.386-359.769Z" transform="translate(-15.895 -10.228)" fill="#2a2a2a"/>
    <path id="Path_132" data-name="Path 132" d="M-3152.747-329.1c-.058,6.416-.791,12.517-4.468,17.882a13.845,13.845,0,0,1-5.789,5.072c-7.385,3.238-14.974,5.836-23.126,6.2-13.479.6-21.979-6.581-23.788-19.975a48.757,48.757,0,0,1,.37-14.938c1.181-6.8,5.668-10.79,11.7-13.379,2.208-.947,4.452-1.813,6.659-2.764a26.438,26.438,0,0,0,7.813-4.533c2.943-2.7,6.476-3.262,10.44-2.08,6.921,2.062,12.669,5.564,16.626,11.785,2.38,3.735,2.878,7.913,3.331,12.13C-3152.814-332.127-3152.817-330.538-3152.747-329.1Zm-22.64,4.344c.084-2.8-1.059-4.443-3.74-5.246-1.136-.34-2.093-1.3-3.236-.3a3.793,3.793,0,0,0-1.438,4c.8,3.21,2.993,4.557,6.4,3.864C-3176.019-322.708-3174.977-323.174-3175.387-324.752Z" transform="translate(-0.576 -3.539)" fill="#2a2a2a"/>
    <path id="Path_144" data-name="Path 144" d="M-3147.623-335.456c2.069.008,2.864.609,2.868,2.168a2.942,2.942,0,0,1-3.339,3.158c-1.53-.044-2.309-1.007-2.313-2.85C-3150.412-335.058-3149.954-335.465-3147.623-335.456Z" transform="translate(18.686 3.772)" fill="#2a2a2a"/>
    <path id="Path_156" data-name="Path 156" d="M-3147.148-335.456c2.423.009,3.353.713,3.357,2.539.006,2.37-1.475,3.769-3.91,3.7-1.792-.051-2.7-1.179-2.708-3.337C-3150.413-334.99-3149.876-335.467-3147.148-335.456Z" transform="translate(-98.233 2.863)" fill="#2a2a2a"/>
    <path id="Path_157" data-name="Path 157" d="M-3148.276-335.456c1.584.008,2.192.616,2.2,2.191,0,2.046-.965,3.253-2.557,3.192-1.171-.044-1.767-1.018-1.771-2.881C-3150.411-335.054-3150.061-335.465-3148.276-335.456Z" transform="translate(-117.27 -36.696)" fill="#2a2a2a"/>
    <path id="Path_158" data-name="Path 158" d="M1.564,0C2.726.006,3.173.452,3.175,1.608,3.178,3.109,2.467,4,1.3,3.95.44,3.918,0,3.2,0,1.837,0,.3.255-.007,1.564,0Z" transform="matrix(0.875, -0.485, 0.485, 0.875, -3182.297, -330.859)" fill="#2a2a2a"/>
    <path id="Path_159" data-name="Path 159" d="M1.564,0C2.726.006,3.173.452,3.175,1.608,3.178,3.109,2.467,4,1.3,3.95.44,3.918,0,3.2,0,1.837,0,.3.255-.007,1.564,0Z" transform="translate(-3139.94 -352.493) rotate(169)" fill="#2a2a2a"/>
  </g>
</svg>
