<svg xmlns="http://www.w3.org/2000/svg" xmlns:xlink="http://www.w3.org/1999/xlink" width="1920" height="957" viewBox="0 0 1920 957">
  <defs>
    <clipPath id="clip-path">
      <rect id="Rectangle_74" data-name="Rectangle 74" width="1920" height="957" transform="translate(0 1928)" fill="#fff" stroke="#707070" stroke-width="1"/>
    </clipPath>
  </defs>
  <g id="Mask_Group_15" data-name="Mask Group 15" transform="translate(0 -1928)" clip-path="url(#clip-path)">
    <path id="Path_219" data-name="Path 219" d="M1363.358-5497.238v842.616c-18.329-1.744-35.271-3.622-52.063-5.482-61-6.757-124.068-13.739-248.135-13.739s-187.136,6.981-248.127,13.739c-61.074,6.766-124.225,13.76-248.451,13.76s-187.384-6.994-248.45-13.76c-61-6.757-124.068-13.739-248.135-13.739s-187.135,6.981-248.127,13.739c-61.075,6.766-124.226,13.76-248.451,13.76s-187.385-6.994-248.451-13.76c-16.693-1.848-33.536-3.714-51.748-5.45v-823.271c7.383.8,14.658,1.6,21.917,2.4,67.129,7.437,136.533,15.126,273.075,15.126,136.525,0,205.938-7.689,273.058-15.126,67.221-7.441,136.716-15.138,273.424-15.138s206.212,7.7,273.424,15.138c67.129,7.437,136.542,15.126,273.075,15.126s205.946-7.689,273.067-15.126c67.212-7.441,136.708-15.138,273.424-15.138C1272.311-5501.559,1321.916-5499.837,1363.358-5497.238Z" transform="translate(700.712 7469.091)" fill="#f6eeee"/>
  </g>
</svg>
