<svg xmlns="http://www.w3.org/2000/svg" xmlns:xlink="http://www.w3.org/1999/xlink" width="354.554" height="130.842" viewBox="0 0 354.554 130.842">
  <defs>
    <filter id="Path_178" x="0" y="0" width="354.554" height="130.842" filterUnits="userSpaceOnUse">
      <feOffset dy="3" input="SourceAlpha"/>
      <feGaussianBlur stdDeviation="3" result="blur"/>
      <feFlood flood-opacity="0.161"/>
      <feComposite operator="in" in2="blur"/>
      <feComposite in="SourceGraphic"/>
    </filter>
  </defs>
  <g transform="matrix(1, 0, 0, 1, 0, 0)" filter="url(#Path_178)">
    <path id="Path_178-2" data-name="Path 178" d="M-165.142-1128.822c0,9.874-3.119,14.894-6.134,19.751-.318.513-.638,1.027-.955,1.549-3.656,6.017-11.728,8.724-18.927,6.325l-.172-.057c-8.743-2.914-17.785-5.928-35.57-5.928s-26.825,3.014-35.568,5.928c-8.726,2.908-17.748,5.915-35.5,5.915s-26.772-3.007-35.5-5.915c-8.743-2.914-17.783-5.928-35.568-5.928s-26.825,3.014-35.568,5.928c-8.726,2.908-17.748,5.915-35.5,5.915s-26.772-3.007-35.5-5.915a114.226,114.226,0,0,0-14.355-4.049c-5.607-1.127-8.45-6.71-5.669-11.187l.054-.087c3.031-4.88,6.165-9.926,6.165-19.859s-3.134-14.977-6.165-19.858c-3.015-4.855-6.134-9.878-6.134-19.75s3.119-14.894,6.134-19.75l.057-.093c3.84-6.181,12.189-8.93,19.623-6.452l.22.073c8.741,2.912,17.783,5.925,35.568,5.925s26.825-3.013,35.568-5.925c8.726-2.91,17.748-5.917,35.5-5.917s26.77,3.007,35.5,5.917c8.743,2.912,17.785,5.925,35.57,5.925s26.825-3.013,35.568-5.925c8.726-2.91,17.748-5.917,35.5-5.917s26.772,3.007,35.5,5.917a110.648,110.648,0,0,0,15.241,4.22c4.875.925,7.342,5.8,4.933,9.68l-.048.077c-3.031,4.878-6.165,9.926-6.165,19.857s3.134,14.977,6.165,19.858C-168.261-1143.714-165.142-1138.694-165.142-1128.822Z" transform="translate(510.7 1214.18)" fill="#41431d"/>
  </g>
</svg>
