<svg xmlns="http://www.w3.org/2000/svg" width="381.435" height="79.309" viewBox="0 0 381.435 79.309">
  <path id="Path_229" data-name="Path 229" d="M-120.261-1152.406c0,6.94-3.535,10.468-6.952,13.882-.361.36-.723.722-1.083,1.089-4.143,4.229-13.292,6.132-21.451,4.445l-.195-.04c-9.909-2.048-20.157-4.166-40.314-4.166s-30.4,2.118-40.311,4.166c-9.889,2.044-20.114,4.157-40.229,4.157s-30.342-2.114-40.232-4.157c-9.909-2.048-20.154-4.166-40.311-4.166s-30.4,2.118-40.311,4.166c-9.889,2.044-20.115,4.157-40.229,4.157s-30.342-2.114-40.232-4.157c-4.943-1.021-9.97-2.06-16.269-2.845-6.355-.792-9.577-4.716-6.425-7.862l.061-.061c3.435-3.43,6.987-6.976,6.987-13.958s-3.552-10.526-6.987-13.957c-3.417-3.412-6.952-6.943-6.952-13.881s3.535-10.468,6.952-13.881l.065-.065c4.352-4.344,13.815-6.276,22.239-4.535l.25.052c9.906,2.047,20.154,4.165,40.311,4.165s30.4-2.118,40.311-4.165c9.889-2.045,20.114-4.159,40.229-4.159s30.34,2.114,40.229,4.159c9.909,2.047,20.157,4.165,40.314,4.165s30.4-2.118,40.311-4.165c9.889-2.045,20.115-4.159,40.229-4.159s30.342,2.114,40.232,4.159c5.2,1.075,10.5,2.169,17.273,2.966,5.525.65,8.322,4.075,5.591,6.8l-.054.054c-3.435,3.429-6.987,6.977-6.987,13.957s3.552,10.526,6.987,13.957C-123.8-1162.872-120.261-1159.344-120.261-1152.406Z" transform="translate(501.696 1208.181)" fill="#f6eeee" opacity="0.8"/>
</svg>
