<svg xmlns="http://www.w3.org/2000/svg" width="86.022" height="80.533" viewBox="0 0 86.022 80.533">
  <path id="Path_199" data-name="Path 199" d="M3352.883,1221.047a38.709,38.709,0,0,1,0,18.843c-.236.956-.476,1.929-.677,3.069a34.88,34.88,0,0,1-4.838-.928,38.938,38.938,0,0,0-18.954,0,38.785,38.785,0,0,1-18.843,0,38.94,38.94,0,0,0-18.955,0,38.783,38.783,0,0,1-18.843,0c-.917-.229-1.848-.457-2.927-.653.112-.492.229-.963.343-1.432a39,39,0,0,0,0-18.955,38.707,38.707,0,0,1,0-18.843,39,39,0,0,0,0-18.955,38.708,38.708,0,0,1,0-18.843c.086-.348.173-.7.256-1.054.812.166,1.546.348,2.272.527a39,39,0,0,0,18.955,0,38.722,38.722,0,0,1,18.843,0,39,39,0,0,0,18.955,0,38.72,38.72,0,0,1,18.843,0,34.513,34.513,0,0,0,5.442.994,33.644,33.644,0,0,0-1.04,8.955,34.161,34.161,0,0,0,1.168,9.478,38.707,38.707,0,0,1,0,18.843,39.036,39.036,0,0,0,0,18.955Z" transform="translate(-3268.025 -1162.66)" fill="#41431d"/>
</svg>
