<svg xmlns="http://www.w3.org/2000/svg" xmlns:xlink="http://www.w3.org/1999/xlink" width="727.552" height="165.531" viewBox="0 0 727.552 165.531">
  <defs>
    <filter id="Path_228" x="0" y="0" width="727.552" height="165.531" filterUnits="userSpaceOnUse">
      <feOffset dy="3" input="SourceAlpha"/>
      <feGaussianBlur stdDeviation="3" result="blur"/>
      <feFlood flood-opacity="0.161"/>
      <feComposite operator="in" in2="blur"/>
      <feComposite in="SourceGraphic"/>
    </filter>
  </defs>
  <g id="Group_123" data-name="Group 123" transform="translate(-596 -5529.234)">
    <g transform="matrix(1, 0, 0, 1, 596, 5529.23)" filter="url(#Path_228)">
      <path id="Path_228-2" data-name="Path 228" d="M207.856-1104.427c0,12.91-6.575,19.473-12.932,25.824-.671.67-1.346,1.343-2.014,2.025-7.707,7.866-24.726,11.406-39.9,8.269l-.363-.075c-18.433-3.81-37.5-7.75-74.993-7.75s-56.555,3.94-74.988,7.75c-18.4,3.8-37.417,7.734-74.835,7.734s-56.443-3.932-74.839-7.734c-18.433-3.81-37.491-7.75-74.988-7.75s-56.554,3.94-74.988,7.75c-18.4,3.8-37.417,7.734-74.835,7.734s-56.444-3.932-74.84-7.734c-9.2-1.9-18.547-3.832-30.265-5.293-11.822-1.473-17.815-8.772-11.952-14.625l.113-.113c6.39-6.381,13-12.978,13-25.964s-6.607-19.581-13-25.962c-6.357-6.348-12.932-12.915-12.932-25.821s6.575-19.473,12.932-25.821l.121-.121c8.1-8.082,25.7-11.675,41.37-8.436l.464.1c18.428,3.807,37.491,7.747,74.988,7.747s56.554-3.94,74.988-7.747c18.4-3.8,37.417-7.736,74.835-7.736s56.439,3.932,74.835,7.736c18.433,3.807,37.5,7.747,74.992,7.747s56.554-3.94,74.988-7.747c18.4-3.8,37.417-7.736,74.835-7.736s56.443,3.932,74.84,7.736c9.678,2,19.529,4.035,32.132,5.517,10.278,1.209,15.48,7.58,10.4,12.656l-.1.1c-6.39,6.378-13,12.978-13,25.962s6.607,19.58,13,25.962C201.28-1123.9,207.856-1117.333,207.856-1104.427Z" transform="translate(510.7 1214.18)" fill="#f0641f" opacity="0.88"/>
    </g>
  </g>
</svg>
