<svg xmlns="http://www.w3.org/2000/svg" xmlns:xlink="http://www.w3.org/1999/xlink" width="1010.278" height="554.954" viewBox="0 0 1010.278 554.954">
  <defs>
    <filter id="Path_225" x="0" y="0" width="1010.278" height="554.954" filterUnits="userSpaceOnUse">
      <feOffset dy="3" input="SourceAlpha"/>
      <feGaussianBlur stdDeviation="3" result="blur"/>
      <feFlood flood-opacity="0.161"/>
      <feComposite operator="in" in2="blur"/>
      <feComposite in="SourceGraphic"/>
    </filter>
  </defs>
  <g transform="matrix(1, 0, 0, 1, 0, 0)" filter="url(#Path_225)">
    <path id="Path_225-2" data-name="Path 225" d="M3484.418,181.853c-3.328,14.254-6.772,29-6.772,57.992s3.443,43.736,6.772,57.993c3.319,14.219,6.753,28.923,6.753,57.847s-3.434,43.625-6.753,57.847c-3.328,14.254-6.772,29-6.772,57.992s3.443,43.738,6.772,57.992c3.319,14.222,6.753,28.926,6.753,57.847s-3.434,43.628-6.753,57.847c-3.328,14.256-6.772,29-6.772,57.992s3.443,43.739,6.772,57.995c.881,3.782,1.774,7.6,2.607,11.707-13.483-1.381-21.709-5.331-29.713-9.172-9.942-4.774-20.223-9.708-40.448-9.708s-30.5,4.934-40.446,9.708c-9.917,4.76-20.173,9.685-40.344,9.685s-30.426-4.924-40.344-9.685c-9.943-4.774-20.223-9.708-40.448-9.708s-30.5,4.934-40.446,9.708c-9.918,4.76-20.173,9.685-40.346,9.685s-30.425-4.924-40.344-9.685c-9.942-4.774-20.222-9.708-40.447-9.708s-30.505,4.934-40.446,9.708c-9.919,4.76-20.174,9.685-40.346,9.685s-30.428-4.924-40.344-9.685c-3.5-1.681-7.04-3.38-11.044-4.878,3.148-13.564,6.226-28.236,6.226-55.649,0-29-3.443-43.739-6.771-57.992-3.32-14.222-6.755-28.924-6.755-57.847s3.435-43.625,6.755-57.845c3.328-14.256,6.771-29,6.771-57.995s-3.443-43.736-6.771-57.992c-3.32-14.219-6.755-28.924-6.755-57.845s3.435-43.628,6.755-57.847c3.328-14.254,6.771-29,6.771-57.992s-3.443-43.739-6.771-57.992c-3.32-14.222-6.755-28.926-6.755-57.847s3.435-43.628,6.755-57.847c3.328-14.256,6.771-29,6.771-57.995s-3.443-43.736-6.771-57.992c-3.32-14.219-6.755-28.923-6.755-57.847s3.435-43.625,6.755-57.847c2.9-12.425,5.89-25.223,6.608-47.511,2.971,1.228,5.721,2.546,8.444,3.853,9.942,4.774,20.222,9.708,40.446,9.708s30.505-4.934,40.448-9.708c9.917-4.761,20.172-9.685,40.344-9.685s30.426,4.924,40.346,9.685c9.941,4.774,20.222,9.708,40.446,9.708s30.506-4.934,40.447-9.708c9.918-4.761,20.173-9.685,40.344-9.685s30.428,4.924,40.346,9.685c9.941,4.774,20.221,9.708,40.447,9.708s30.5-4.934,40.448-9.708c9.917-4.761,20.172-9.685,40.343-9.685s30.428,4.924,40.346,9.685a97.128,97.128,0,0,0,17.606,6.991c1.188,15.9,3.641,26.407,6.039,36.667,3.319,14.219,6.753,28.924,6.753,57.845s-3.434,43.628-6.753,57.847c-3.328,14.254-6.772,29-6.772,57.992s3.443,43.739,6.772,57.992c3.319,14.219,6.753,28.923,6.753,57.847S3487.738,167.632,3484.418,181.853Z" transform="translate(227.86 3497.17) rotate(-90)" fill="#41431d"/>
  </g>
</svg>
