<svg xmlns="http://www.w3.org/2000/svg" width="211.239" height="105.537" viewBox="0 0 211.239 105.537">
  <path id="Path_221" data-name="Path 221" d="M730.9,1179.749a17.931,17.931,0,0,1-6.459-.216c-1.477-.324-2.938.536-2.938,1.8l.01,31.156-79.7.01a2.072,2.072,0,0,0-2.285,2.126,10.3,10.3,0,0,1-.5,4.86c-1.568,4.507-6.257,7.948-11.864,8.681-9.3,1.217-17.332-4.69-17.335-12.146a10.149,10.149,0,0,1,.1-1.4,2.072,2.072,0,0,0-2.286-2.118l-75.709.01-.028-89.7,189.586-.025.01,31.125c0,1.268,1.461,2.152,2.945,1.826a17.656,17.656,0,0,1,3.8-.41c8.758,0,15.754,6.24,14.818,13.634C742.376,1174.335,737.342,1178.807,730.9,1179.749Z" transform="translate(-531.9 -1122.786)" fill="#d5d7d8"/>
</svg>
