<svg xmlns="http://www.w3.org/2000/svg" width="214.887" height="121.056" viewBox="0 0 214.887 121.056">
  <path id="Path_220" data-name="Path 220" d="M597.426,1158.3a16.676,16.676,0,0,0-4.228.476,2.167,2.167,0,0,1-2.862-1.776l.01-31.245-78.529-.008a2.034,2.034,0,0,1-2.2-2.126,10.663,10.663,0,0,0-.486-4.861c-1.515-4.506-6.04-7.947-11.453-8.68-8.982-1.217-16.733,4.689-16.735,12.146a10.41,10.41,0,0,0,.093,1.4,2.033,2.033,0,0,1-2.207,2.118l-82.124-.009-.028,89.7,81.753.008a2.037,2.037,0,0,1,2.208,2.084,9.956,9.956,0,0,0,.431,4.246c1.781,5.5,7.823,9.431,14.49,9.2,7.663-.271,13.779-5.67,13.782-12.294a10.159,10.159,0,0,0-.063-1.119,2.046,2.046,0,0,1,2.21-2.106l78.833.009.01-31.193a2.158,2.158,0,0,1,2.785-1.846,16.677,16.677,0,0,0,4.062.5c7.775,0,14.109-5.276,14.378-11.872C611.829,1164.261,605.352,1158.411,597.426,1158.3Z" transform="translate(-396.674 -1109.916)" fill="#abe0f3"/>
</svg>
