<svg xmlns="http://www.w3.org/2000/svg" width="211.241" height="105.537" viewBox="0 0 211.241 105.537">
  <path id="Path_222" data-name="Path 222" d="M863.889,1158.49a17.938,17.938,0,0,0-6.458.216c-1.477.324-2.938-.535-2.937-1.8l.01-31.157-79.7-.008a2.07,2.07,0,0,1-2.283-2.126,10.3,10.3,0,0,0-.5-4.86c-1.568-4.508-6.256-7.948-11.864-8.681-9.3-1.217-17.332,4.689-17.335,12.146a10.173,10.173,0,0,0,.1,1.4,2.07,2.07,0,0,1-2.286,2.116l-75.708-.008-.03,89.7,189.587.026.01-31.125c0-1.268,1.46-2.152,2.944-1.825a17.674,17.674,0,0,0,3.8.41c8.758,0,15.755-6.241,14.819-13.634C875.364,1163.9,870.33,1159.432,863.889,1158.49Z" transform="translate(-664.888 -1109.916)" fill="#fff"/>
</svg>
