<svg xmlns="http://www.w3.org/2000/svg" width="214.887" height="121.056" viewBox="0 0 214.887 121.056">
  <path id="Path_223" data-name="Path 223" d="M999.71,1158.3a16.673,16.673,0,0,0-4.226.476,2.167,2.167,0,0,1-2.862-1.776l.01-31.245-78.529-.008a2.034,2.034,0,0,1-2.2-2.126,10.665,10.665,0,0,0-.486-4.861c-1.515-4.506-6.04-7.947-11.453-8.68-8.982-1.217-16.733,4.689-16.736,12.146a10.41,10.41,0,0,0,.094,1.4,2.034,2.034,0,0,1-2.207,2.118l-82.124-.009-.028,89.7,81.752.008a2.039,2.039,0,0,1,2.21,2.084,9.963,9.963,0,0,0,.431,4.246c1.781,5.5,7.823,9.431,14.49,9.2,7.662-.271,13.779-5.67,13.781-12.294a10.13,10.13,0,0,0-.062-1.119,2.046,2.046,0,0,1,2.21-2.106l78.833.009.01-31.193a2.158,2.158,0,0,1,2.783-1.846,16.686,16.686,0,0,0,4.063.5c7.773,0,14.109-5.276,14.378-11.872C1014.113,1164.261,1007.635,1158.411,999.71,1158.3Z" transform="translate(-798.959 -1109.916)" fill="#d5d7d8"/>
</svg>
